<svg width="1002" height="100" viewBox="0 0 1002 100" fill="none" xmlns="http://www.w3.org/2000/svg" class="svg">
<path d="M61.366 60.384L45.878 20.96L30.262 60.384H61.366ZM91.062 98.016H76.214L66.486 73.568H25.014L15.158 98.016H0.438L39.35 2.52799H53.302L91.062 98.016ZM144.063 13.792C135.188 13.792 128.191 17.5467 123.071 25.056C118.378 31.7973 116.031 40.16 116.031 50.144C116.031 60.2133 118.378 68.6187 123.071 75.36C128.191 82.8693 135.188 86.624 144.063 86.624C152.938 86.624 159.935 82.8693 165.055 75.36C169.663 68.6187 171.967 60.2133 171.967 50.144C171.967 40.2453 169.663 31.8827 165.055 25.056C159.935 17.5467 152.938 13.792 144.063 13.792ZM144.063 0.863998C157.716 0.863998 168.34 5.94133 175.935 16.096C182.676 25.1413 186.004 36.4907 185.919 50.144C185.748 65.0773 182.25 76.8533 175.423 85.472C167.999 94.8587 157.546 99.552 144.063 99.552C130.666 99.552 120.17 94.8587 112.575 85.472C105.578 76.6827 102.079 64.9067 102.079 50.144C102.079 36.32 105.407 24.928 112.063 15.968C119.572 5.89866 130.239 0.863998 144.063 0.863998ZM219.085 97.504H205.005V2.784H219.085V97.504ZM285.213 15.84H253.085V42.208H283.421V55.392H253.085V97.504H239.133V2.784H285.213V15.84ZM351.181 98.016H302.541V2.52799H349.773V15.584H316.493V42.208H347.981V55.264H316.493V84.832H351.181V98.016ZM506.214 98.016H492.518V24.16L463.462 97.376H452.198L422.118 24.16V98.016H408.294V2.52799H426.726L457.702 78.432L487.782 2.52799H506.214V98.016ZM544.71 97.504H530.63V2.784H544.71V97.504ZM622.23 15.456H596.246V97.504H582.294V15.456H556.438V2.784H622.23V15.456ZM702.732 95.2C697.953 97.8453 690.487 99.168 680.332 99.168C665.74 99.168 654.092 94.7307 645.388 85.856C636.769 76.8107 632.46 64.9067 632.46 50.144C632.46 35.552 636.855 23.7333 645.644 14.688C654.433 5.64266 665.996 1.12 680.332 1.12C690.743 1.12 698.209 2.272 702.732 4.576L701.708 17.632C695.905 15.328 688.78 14.176 680.332 14.176C670.007 14.176 661.772 17.504 655.628 24.16C649.484 30.816 646.412 39.4773 646.412 50.144C646.412 61.2373 649.399 69.9413 655.372 76.256C661.431 82.8267 669.751 86.112 680.332 86.112C689.292 86.112 696.417 84.704 701.708 81.888L702.732 95.2ZM796.884 98.016H783.06V55.392H743.764V98.016H729.812V2.52799H743.764V42.336H783.06V2.52799H796.884V98.016ZM870.556 98.016H821.916V2.52799H869.148V15.584H835.868V42.208H867.356V55.264H835.868V84.832H870.556V98.016ZM939.026 97.504H890.898V2.784H904.722V84.32H939.026V97.504ZM1001.03 97.504H952.898V2.784H966.722V84.32H1001.03V97.504Z" fill="#7B7B7B"/>
</svg>
